<svg width="447" height="412" viewBox="0 0 447 412" fill="none" xmlns="http://www.w3.org/2000/svg">
<path d="M363.561 372.425C383.49 358.712 389.48 346.804 387.289 330.396C386.204 322.311 381.105 313.498 366.392 309.064C354.256 305.405 338.477 305.609 323.996 306.393C287.764 308.353 250.873 313.041 215.437 309.227C183.606 305.805 157.028 295.931 126.496 290.663C100.693 286.227 72.301 285.197 45.0767 287.706C25.6331 289.52 4.38653 294.534 0.606352 303.453C-2.22393 310.207 5.16195 316.079 16.3474 320.604C77.9933 345.587 8.59319 362.257 32.2629 385.247C57.3478 409.675 198.668 413.506 229.995 411.178C306.878 405.469 343.594 386.129 363.561 372.425Z" fill="#7AA725"/>
<path d="M198.852 223.752L171.887 211.179L135.204 289.846L162.169 302.419L198.852 223.752Z" fill="#36341F"/>
<path d="M248.088 235.799L218.34 236.318L219.855 323.104L249.603 322.585L248.088 235.799Z" fill="#36341F"/>
<path d="M305.432 131.597C300.581 111.466 289.889 93.52 274.51 79.6985C259.499 66.2064 241.06 57.5042 221.186 54.5326C220.558 54.4387 219.919 54.3913 219.284 54.3913C216.978 54.3913 214.732 55.0162 212.762 56.1715C210.581 56.0265 208.395 55.951 206.221 55.951C206.204 55.951 206.186 55.9515 206.168 55.9515C205.234 54.4651 203.603 53.5303 201.781 53.5303C201.7 53.5303 201.619 53.5322 201.536 53.5358C195.075 53.8332 188.606 54.7539 182.309 56.2724C173.766 58.3325 165.547 61.4606 157.88 65.5698C156.178 66.482 155.165 68.1853 155.134 70.0376C153.183 71.2015 151.273 72.4321 149.409 73.7275C146.476 73.7508 143.613 74.7902 141.336 76.6675C132.228 84.1793 124.519 93.2024 118.424 103.486C105.476 125.335 101.146 151.061 106.232 175.925C110.345 196.034 120.254 214.208 134.887 228.482C136.039 229.606 137.554 230.225 139.151 230.225C139.555 230.225 139.957 230.184 140.35 230.106C141.745 231.335 143.177 232.525 144.64 233.676C145.102 236.094 146.499 238.281 148.582 239.707C165.704 251.429 185.639 257.625 206.232 257.625C214.245 257.625 222.288 256.666 230.14 254.772C254.702 248.848 276.1 234.071 290.392 213.162C291.838 211.047 292.328 208.493 291.895 206.083C292.577 204.926 293.236 203.755 293.872 202.572C295.839 202.251 297.569 200.982 298.435 199.154C308.386 178.158 310.87 154.166 305.432 131.597Z" fill="#36341F"/>
<path d="M146.975 80.7441C153.758 75.3593 161.268 70.9241 169.342 67.5565C172.538 67.2499 175.784 66.7084 179.07 65.9161C183.974 64.7332 188.52 63.1193 192.688 61.1147C201.379 59.8613 210.016 59.8403 218.406 60.9315C208.949 70.1886 196.654 76.892 182.535 80.2969C176.122 81.8436 169.728 82.6083 163.471 82.6083C157.831 82.6083 152.306 81.976 146.975 80.7441ZM293.214 194.438C287.068 186.29 282.519 176.229 279.67 164.408C273.872 140.344 261.661 121.892 244.356 111.045C228.211 100.925 208.191 98.0345 187.983 102.909C167.74 107.791 151.227 119.435 141.486 135.697C131.005 153.195 128.549 175.239 134.382 199.446C136.304 207.42 137.366 214.837 137.589 221.689C141.966 226.218 146.772 230.289 151.92 233.857C153.159 222.555 152.113 209.904 148.757 195.979C139.296 156.713 156.053 125.826 191.449 117.289C226.845 108.752 255.834 128.608 265.296 167.875C269.218 184.151 276.032 197.74 285.537 208.351C288.473 203.936 291.042 199.282 293.214 194.438Z" fill="white"/>
<path d="M183.29 60.347C189.453 58.8608 195.619 58.0039 201.728 57.723C202.754 57.6758 203.188 59.0153 202.337 59.5913C195.94 63.9253 188.422 67.211 179.878 69.2715C173.25 70.87 166.663 71.4963 160.296 71.1802C159.269 71.1292 158.951 69.7503 159.858 69.2644C167.164 65.3488 175.019 62.3416 183.29 60.347ZM229.158 250.697C201.162 257.449 173.026 251.363 150.948 236.248C149.39 235.181 148.52 233.353 148.678 231.471C149.549 221.078 148.466 209.498 145.403 196.788C135.45 155.484 153.207 122.962 190.64 113.934C228.076 104.906 258.697 125.761 268.65 167.066C272.228 181.914 278.266 194.425 286.615 204.349C288.159 206.184 288.287 208.816 286.933 210.797C273.731 230.11 253.631 244.795 229.158 250.697ZM294.65 197.358C294.041 198.641 292.284 198.855 291.403 197.741C284.488 189.003 279.42 178.098 276.316 165.217C270.734 142.049 259.049 124.328 242.524 113.97C227.172 104.347 208.089 101.61 188.792 106.264C169.456 110.927 153.706 122.011 144.446 137.471C134.44 154.177 132.119 175.327 137.736 198.638C139.949 207.822 141.063 216.323 141.086 224.116C141.091 225.818 139.03 226.669 137.811 225.481C124.302 212.302 114.424 195.069 110.336 175.085C105.475 151.321 109.663 126.488 122.028 105.624C127.92 95.6819 135.36 87.028 144.001 79.9015C145.96 78.2863 148.525 77.5994 151.023 78.0497C155.08 78.7811 159.243 79.1552 163.477 79.1552C169.462 79.1552 175.584 78.4227 181.726 76.9415C194.018 73.977 204.853 68.4108 213.499 60.7807C215.434 59.0723 218.014 58.2963 220.567 58.678C258.838 64.4007 291.747 92.6908 301.359 132.579C306.801 155.164 303.899 177.841 294.65 197.358Z" fill="#B6D32B"/>
<path d="M151.421 230.925C152.174 220.789 151.128 209.516 148.31 197.386C165.418 217.448 190.86 230.197 219.23 230.197C244.041 230.197 266.612 220.445 283.329 204.58C283.718 205.067 284.108 205.553 284.508 206.029C267.897 231.724 239.01 248.774 206.203 248.774C185.745 248.774 166.808 242.144 151.421 230.925ZM126.034 137.001C126.034 121.214 129.985 106.334 136.942 93.2903C122.071 109.809 113.007 131.654 113.007 155.578C113.007 180.153 122.575 202.53 138.173 219.197C137.796 212.979 136.757 206.303 135.062 199.276C132.608 189.097 131.636 179.31 132.115 170.088C128.193 159.8 126.034 148.649 126.034 137.001Z" fill="#8CBF2B"/>
<path d="M236.291 149.945L230.367 113.777C237.292 104.349 250.914 106.664 258.902 114.611C266.889 122.558 267.136 138.964 260.467 144.96C251.768 152.782 241.255 151.739 241.255 151.739C237.875 151.527 236.291 149.945 236.291 149.945ZM176.114 149.945L182.038 113.777C175.113 104.349 161.492 106.664 153.504 114.611C145.516 122.558 145.27 138.964 151.938 144.96C160.637 152.782 171.15 151.739 171.15 151.739C174.531 151.527 176.114 149.945 176.114 149.945Z" fill="white"/>
<path d="M145.151 99.5584C150.219 94.4931 156.883 89.6829 163.797 87.5901C167.493 86.4717 171.3 85.9412 175.16 85.9886C178.461 86.0291 183.506 86.0091 185.488 89.1386C186.055 90.0338 185.698 91.3833 184.768 91.8867C181.955 93.4097 177.862 91.877 174.812 91.7222C171.589 91.5586 168.266 91.7204 165.081 92.2458C157.868 93.4354 151.656 95.5573 146.189 100.597C145.496 101.236 144.479 100.23 145.151 99.5584ZM144.986 130.213C144.952 138.345 149.053 146.931 157.65 148.777C157.731 148.794 157.766 148.672 157.684 148.652C152.935 147.488 146.464 136.434 150.208 124.123C152.306 117.225 155.968 112.704 163.224 110.794C166.418 109.953 169.99 109.386 173.093 110.577C170.997 112.479 169.23 115.428 168.033 117.366C167.505 118.221 167.046 119.127 166.646 120.064C170.587 119.919 175.576 121.765 173.342 125.116C171.471 127.735 168.082 126.709 164.901 125.984C164.736 126.864 164.6 127.744 164.5 128.612C164.023 132.749 164.483 137.001 165.778 140.959C166.966 144.589 169.047 149.179 172.445 151.336C171.612 151.456 170.776 151.55 169.942 151.623C169.395 151.67 169.382 152.516 169.942 152.486C179.728 151.971 190.103 147.614 192.912 137.289C197.697 119.705 176.101 98.7873 159.012 107.539C151.149 111.565 145.024 121.335 144.986 130.213ZM248.608 87.5901C245.025 86.5057 241.337 85.9713 237.593 85.9844C234.228 85.9961 228.945 85.9358 226.917 89.1386C226.35 90.0337 226.708 91.3833 227.637 91.8867C230.455 93.412 234.55 91.8741 237.593 91.7222C240.814 91.5615 244.141 91.7207 247.325 92.2458C254.539 93.4356 260.748 95.5562 266.216 100.597C266.909 101.236 267.926 100.23 267.254 99.5584C262.187 94.4939 255.521 89.6825 248.608 87.5901ZM232.839 172.003C231.33 171.096 229.657 170.802 228.292 169.614C227.057 168.539 224.345 166.155 224.341 164.432C224.339 163.718 223.316 163.592 223.111 164.266C222.582 166.005 223.114 167.815 224.038 169.396C223.373 169.893 222.914 170.566 222.296 171.306C221.299 172.498 220.081 173.658 218.819 174.562C205.9 183.82 191.189 176.736 188.324 173.969C189.516 173.071 190.481 171.911 190.439 170.328C190.426 169.848 189.795 169.525 189.443 169.915C188.505 170.957 187.688 172.077 186.551 172.922C185.412 173.769 183.782 175.02 182.329 175.034C181.629 175.041 181.411 176.203 182.157 176.307C184.057 176.572 185.816 175.573 187.392 174.602C187.564 174.496 187.735 174.385 187.904 174.27C192.854 180.884 202.728 183.401 210.604 182.443C214.344 181.989 218.034 180.69 221.155 178.559C222.923 177.353 225.73 175.105 226.765 172.671C228.549 174.21 231.129 175.479 233.044 173.597C233.516 173.134 233.394 172.337 232.839 172.003ZM198.993 158.405C199.154 158.472 199.285 158.225 199.161 158.116C195.392 154.788 198.045 148.407 202.775 147.914C204.549 147.73 206.422 148.468 207.719 149.677C209.306 151.158 209.452 152.722 209.659 154.745C209.723 155.371 210.455 155.587 210.826 155.061C212.465 152.739 211.557 148.981 209.985 146.876C207.906 144.094 204.21 143.402 200.99 144.395C194.393 146.43 191.801 155.409 198.993 158.405ZM253.394 107.539C236.304 98.7873 214.709 119.705 219.493 137.289C222.302 147.614 232.677 151.971 242.463 152.486C243.023 152.516 243.011 151.67 242.463 151.623C241.629 151.55 240.793 151.456 239.96 151.336C243.358 149.179 245.44 144.589 246.627 140.959C247.922 137.001 248.383 132.749 247.905 128.612C247.805 127.744 247.67 126.864 247.504 125.984C244.323 126.709 240.934 127.735 239.064 125.116C236.829 121.765 241.818 119.919 245.76 120.064C245.359 119.127 244.9 118.221 244.372 117.366C243.175 115.428 241.409 112.479 239.312 110.577C242.415 109.386 245.988 109.953 249.182 110.794C256.438 112.704 260.1 117.225 262.197 124.123C265.941 136.434 259.471 147.488 254.721 148.652C254.64 148.672 254.674 148.794 254.755 148.777C263.352 146.931 267.453 138.345 267.419 130.213C267.381 121.335 261.256 111.565 253.394 107.539Z" fill="#36341F"/>
<path d="M267.508 336.496C267.509 336.441 267.519 336.388 267.513 336.333C266.178 323.906 261.289 311.845 254.94 301.106C258.363 299.488 260.152 296.14 259.948 292.303C259.763 288.824 258.436 285.151 255.675 282.88C252.819 280.531 249.183 280.85 245.716 280.531C238.243 279.842 230.577 278.686 223.126 280.181C219.757 280.856 215.921 282.197 213.939 285.188C212.82 286.878 212.575 288.889 212.387 290.861C212.241 292.395 212.229 293.961 212.546 295.476C213.35 299.313 216.39 301.125 219.856 301.649C218.076 303.833 216.316 306.032 214.672 308.322C212.59 311.222 210.986 314.578 209.448 317.791C207.92 320.985 206.498 324.217 205.349 327.567C204.776 329.237 204.239 330.92 203.771 332.622C203.517 333.545 203.099 334.646 202.905 335.726C202.285 336.305 201.684 336.898 201.107 337.499C196.601 342.194 193.164 347.928 191.263 354.158C189.247 360.761 188.901 368.347 192.034 374.663C195.245 381.136 202.028 384.255 208.673 386.034C224.219 390.195 241.359 390.995 257.159 387.774C263.559 386.469 270.097 383.881 274.025 378.398C278.167 372.619 278.766 364.175 277.868 357.337C276.835 349.471 273.347 341.945 267.508 336.496Z" fill="#36341F"/>
<path d="M202.973 341.632C207.343 336.618 212.824 333.383 218.604 330.254C220.096 329.447 219.014 327.4 217.514 327.668C214.28 328.247 211.225 329.602 208.423 331.395C208.655 330.632 208.872 329.863 209.121 329.105C210.19 325.84 211.315 322.568 212.64 319.397C213.949 316.268 215.564 313.305 216.993 310.237C218.329 307.369 219.692 304.528 221.288 301.8C223.691 301.925 226.179 301.502 228.191 300.754C228.769 300.539 228.823 299.718 228.191 299.523C226.727 299.07 225.217 298.62 223.687 298.488C222.503 298.387 221.339 298.276 220.181 297.997C219.254 297.775 218.6 297.585 217.852 297.11C217.387 296.815 216.932 296.284 216.699 295.771C215.896 294.001 216.098 291.272 216.431 289.215C216.943 286.059 219.722 284.672 222.562 283.965C228.733 282.428 235.481 283.263 241.73 283.822C244.528 284.073 247.323 284.217 250.122 284.409C253.105 284.613 254.652 286.704 255.209 289.441C255.767 292.187 255.97 295.94 253.129 297.512C251.417 298.459 249.225 297.965 247.377 297.764C246.144 297.63 244.914 297.474 243.678 297.369C242.365 297.257 241.444 297.332 240.244 297.898C239.177 298.4 239.119 300.305 240.244 300.788C242.483 301.748 245.2 301.599 247.626 301.826C249.309 301.983 251.021 302.14 252.682 301.851C256.425 312.151 261.134 322.094 262.961 332.943C261.326 331.882 259.6 330.961 257.797 330.195C254.296 328.707 250.377 327.573 246.56 328.079C245.749 328.186 245.085 328.614 244.967 329.485C244.869 330.215 245.333 331.129 246.129 331.265C249.17 331.783 252.226 332.171 255.147 333.22C258.013 334.25 260.735 335.822 263.092 337.748C267.98 341.744 271.358 347.188 272.978 353.276C273.77 356.249 274.168 359.417 274.139 362.579C271.971 367.186 267.123 369.798 262.598 371.664C256.628 374.125 250.086 375.711 243.67 376.392C237.007 377.098 230.218 376.997 223.59 375.998C217.759 375.118 211.758 373.732 206.395 371.216C201.738 369.032 196.878 365.967 194.19 361.447C194.282 360.552 194.41 359.668 194.578 358.81C195.82 352.469 198.726 346.506 202.973 341.632Z" fill="white"/>
<path d="M272.334 372.8C270.189 378.503 264.863 381.447 259.275 383.01C252.476 384.912 245.196 385.466 238.164 385.554C230.673 385.646 223.181 384.924 215.844 383.412C209.711 382.149 202.611 380.64 198.123 375.913C195.135 372.766 194.043 368.441 194.048 364.144C194.58 365.173 195.174 366.17 195.862 367.107C197.554 369.412 199.838 371.21 202.226 372.757C207.58 376.225 213.898 378.038 220.118 379.177C234.251 381.766 249.57 380.754 263.078 375.718C266.784 374.336 270.402 372.39 273.264 369.7C273.007 370.753 272.712 371.794 272.334 372.8Z" fill="#C1C6D9"/>
<path d="M169.748 327.374C171.289 318.58 170.366 309.594 168.503 300.924C168.127 299.171 167.672 297.448 167.13 295.746C169.371 295.346 171.31 293.669 171.943 291.388C172.811 288.254 171.773 284.488 170.113 281.796C168.358 278.95 165.167 277.18 162.303 275.6C156.194 272.231 149.308 269.979 142.378 269.168C137.039 268.545 130.73 273.906 130.963 279.397C130.993 280.121 131.144 280.873 131.409 281.547C131.748 282.412 132.519 282.917 133.288 283.387C130.428 284.93 127.168 285.492 123.867 285.492C121.584 285.493 119.381 285.236 117.129 284.884C115.253 284.59 113.372 284.395 111.493 284.138C109.062 280.606 107.523 276.335 105.166 272.797C101.01 266.555 93.7311 263.694 86.3815 264.493C78.9724 265.3 71.6629 269.18 66.8201 274.853C61.189 281.45 59.2045 290.586 60.9581 299.005C62.6599 307.174 68.2561 314.016 74.9281 318.775C82.6533 324.284 91.6885 327.212 100.771 329.641C110.516 332.247 120.167 334.829 129.513 338.685C134.012 340.542 138.338 342.835 143.019 344.218C147.296 345.482 152.175 346.29 156.587 345.298C164.786 343.453 168.443 334.825 169.748 327.374Z" fill="#36341F"/>
<path d="M117.14 301.227C117.629 301.142 117.901 300.416 117.511 299.977C115.857 298.119 113.936 296.58 112.046 294.97C110.164 293.368 108.282 291.762 106.366 290.201C102.743 287.251 99.1562 284.251 95.4833 281.364C89.5169 276.674 82.366 272.483 74.6093 273.664C77.3016 271.764 80.3577 270.347 83.5129 269.426C89.5452 267.665 96.8176 268.288 101.119 273.344C105.074 277.993 106.389 284.577 111.376 288.406C112.635 289.373 113.934 289.953 115.485 290.292C116.463 290.505 116.819 289.211 116.049 288.718C115.208 288.179 114.463 287.558 113.778 286.887C116.936 288.404 120.728 288.898 124.073 288.946C128.596 289.01 133.405 287.768 137.002 284.94C137.477 285.067 137.954 285.18 138.427 285.271C140.122 285.595 141.839 285.795 143.522 286.18C145.181 286.56 147.106 287.002 148.457 288.062C149.186 288.635 150.416 287.778 149.776 286.942C149.077 286.029 148.213 285.085 147.269 284.414C146.161 283.627 144.612 283.263 143.315 282.926C140.866 282.29 138.213 281.989 135.902 280.919C135.423 280.697 134.915 280.454 134.498 280.128C134.459 280.01 134.417 279.892 134.386 279.771C134.356 279.628 134.341 279.485 134.326 279.34C134.22 278.271 134.616 277.237 135.173 276.343C136.296 274.539 138.236 273.183 140.3 272.698C141.46 272.426 142.58 272.737 143.729 272.964C145.137 273.241 146.541 273.554 147.932 273.908C150.804 274.64 153.611 275.59 156.325 276.781C159.029 277.967 161.658 279.369 164.095 281.041C165.091 281.725 165.991 282.376 166.665 283.389C167.428 284.534 167.963 285.855 168.202 287.213C168.527 289.052 168.366 292.672 165.521 291.946C162.662 291.216 160.23 287.831 157.111 288.305C155.859 288.495 155.276 289.92 156.21 290.857C157.328 291.98 158.897 292.596 160.249 293.423C161.231 294.024 162.255 294.698 163.338 295.183C165.726 303.378 166.612 311.721 166.242 320.245C166.224 320.66 166.199 321.075 166.171 321.49C165.429 320.845 164.601 320.29 163.751 319.808C161.056 318.28 158.009 317.445 155.08 316.495C147.76 314.123 140.399 311.883 133.074 309.534C129.134 308.27 125.335 306.665 121.788 304.528C119.645 304.027 118.127 302.894 117.14 301.227Z" fill="white"/>
<path d="M158.688 339.778C155.562 341.86 151.676 341.637 148.121 341.019C143.811 340.269 139.97 338.595 136.01 336.818C127.241 332.884 118.149 329.78 108.867 327.307C100.012 324.949 90.9146 322.905 82.7605 318.576C76.2354 315.112 70.1318 310.068 66.9215 303.271C63.6544 296.354 63.9294 288.009 67.622 281.313C67.931 280.753 68.2712 280.217 68.6262 279.692C69.9928 279.053 71.4966 278.744 73.094 278.898C75.881 279.166 78.5543 280.417 81.0079 281.698C86.6879 284.666 91.237 288.965 96.0211 293.147C102.942 299.196 109.991 305.088 117.579 310.291C121.317 312.853 125.145 315.146 129.322 316.924C133.388 318.655 137.601 320.021 141.811 321.351C146.518 322.837 151.264 324.259 155.81 326.199C159.304 327.691 163.487 329.89 163.394 333.997C162.33 336.281 160.784 338.382 158.688 339.778ZM159.142 320.281C154.859 318.666 150.444 317.34 146.106 315.878C141.687 314.389 137.255 312.934 132.879 311.318C128.849 309.831 124.656 308.083 121.538 305.034C121.331 304.831 121.531 304.465 121.788 304.528C120.205 303.476 118.656 302.374 117.14 301.227C117.007 301.248 116.861 301.231 116.703 301.137C112.83 298.821 109.383 295.639 105.903 292.774C102.431 289.915 99.0284 286.972 95.5718 284.095C89.3513 278.917 81.5904 273.267 73.0004 274.945C72.9812 274.949 72.965 274.943 72.9463 274.945C71.8425 275.867 70.8184 276.879 69.8996 277.987C74.0756 276.691 78.9185 277.572 82.9188 279.558C89.2027 282.676 94.4455 287.449 99.7487 291.951C107.234 298.304 114.844 304.634 123.164 309.879C131.177 314.93 140.44 317.227 149.333 320.194C153.582 321.611 158.26 323.003 162.002 325.529C163.188 326.33 164.29 327.37 165.159 328.556C165.462 327.236 165.7 325.899 165.874 324.554C165.851 324.523 165.833 324.491 165.809 324.459C165.367 323.88 164.821 323.381 164.245 322.929C163.624 322.49 162.983 322.081 162.332 321.693C161.305 321.143 160.221 320.688 159.142 320.281Z" fill="#C1C6D9"/>
<path d="M127.989 171.885C126.78 167.639 122.346 165.182 118.101 166.401C101.243 171.224 84.1515 166.665 71.2048 153.884C59.8105 142.632 54.342 127.612 56.2347 113.609C59.9403 113.973 63.7929 113.56 67.0467 111.767C71.7263 109.187 75.7005 104.871 79.5334 101.147C81.3357 99.3964 83.3863 97.902 85.6053 96.723C86.8833 96.0439 88.3676 95.3038 88.3421 93.6218C88.3311 92.9019 88.0002 92.222 87.5007 91.7034C85.5024 89.6284 82.2935 89.6441 79.7317 90.6991C77.0953 91.7849 74.9613 93.8097 72.698 95.5091C72.1054 95.9541 71.3072 96.0921 70.6263 95.7993C69.317 95.2362 69.5368 93.7034 69.9963 92.5767C71.6354 88.556 75.0539 85.5834 78.2957 82.695C81.7322 79.6325 85.211 76.3054 87.9106 72.577C88.7584 71.4067 89.556 70.1386 89.4594 68.5933C89.4324 68.1597 89.3058 67.7301 89.0765 67.361C87.8716 65.421 85.4348 66.2755 83.6299 67.2623C79.4817 69.5314 70.3541 80.4475 68.482 81.7297C68.1546 81.9539 67.7647 82.1692 67.3572 81.8775C66.9449 81.5823 66.8531 81.0003 67.0933 80.5537C70.2797 74.629 75.4091 68.2889 78.2422 62.0941C78.8946 60.6659 79.4675 59.1227 79.0292 57.5343C78.8026 56.7132 78.2581 55.9846 77.4804 55.6372C75.7368 54.8587 74.025 56.2669 72.8139 57.617C69.6557 61.1392 62.5025 74.6858 60.9009 76.3628C60.443 76.8429 59.6399 77.2705 59.1813 76.7912C58.8697 76.4657 58.9647 75.9398 59.089 75.5064C60.8886 69.2369 63.7546 63.4251 66.5756 55.6458C66.9148 54.7104 66.8864 53.5891 66.2606 52.781C65.8076 52.1961 65.0723 51.916 64.3327 51.8961C62.9329 51.8583 61.7205 52.6592 60.758 53.6151C56.5589 57.7857 56.1763 65.0647 50.335 75.2407C50.0434 75.7488 49.4768 76.2289 48.9307 76.1436C48.8386 76.1292 48.746 76.0978 48.6538 76.0476C48.188 75.794 48.0084 75.2108 48.1616 74.703C49.0962 71.6043 50.0312 68.506 50.9662 65.4076C51.4552 63.7864 51.9376 62.0004 51.2641 60.4465C50.5142 58.7164 48.2214 58.2972 46.8055 59.4531C44.9531 60.9658 44.3092 64.0537 43.6379 66.2154C41.7697 72.229 39.1973 78.0311 37.7913 84.1695C36.3851 90.3076 35.0693 96.3948 37.9221 102.009C38.7957 103.728 39.9412 105.27 41.2708 106.641C36.6792 126.948 43.6953 149.199 59.9669 165.266C64.7366 169.975 70.0154 173.843 75.6399 176.834C89.9713 184.454 106.533 186.349 122.504 181.774C126.751 180.558 129.208 176.131 127.989 171.885Z" fill="#36341F"/>
<path d="M316.495 19.5389C295.35 30.313 289.507 61.3726 303.469 88.7745C309.279 100.177 317.621 109.166 326.901 115.013L326.883 115.056L375.361 149.314L381.795 161.941C380.584 163.99 381.375 165.542 382.249 167.258L396.941 196.093C398.715 199.575 402.936 200.983 406.42 199.208C409.903 197.433 411.246 193.191 409.472 189.708L394.78 160.873C393.906 159.158 393.115 157.606 390.745 157.381L384.361 144.852L387.625 84.8952L387.556 84.8885C388.456 73.7295 386.118 61.382 380.164 49.6964C366.202 22.2946 337.641 8.76474 316.495 19.5389ZM330.071 105.074C329.527 104.686 328.989 104.283 328.454 103.867L329.249 103.462L330.071 105.074ZM327.644 99.9192L325.187 101.171C323.43 99.8115 320.913 96.5842 319.478 95.0606L323.996 92.7587L327.644 99.9192ZM322.171 89.1784L317.029 91.7987C315.794 90.1732 313.791 86.6839 312.859 84.9039L318.523 82.0179L322.171 89.1784ZM316.699 78.4376L311.122 81.279C309.435 77.6291 308.813 75.6911 308.342 73.6758L313.05 71.2771L316.699 78.4376ZM311.226 67.6968L307.331 69.6812C306.175 65.7606 306.108 63.5397 306.196 61.2401L307.577 60.5363L311.226 67.6968ZM352.033 32.3432C352.172 32.4353 352.312 32.5259 352.451 32.6197L352.231 32.732L352.033 32.3432ZM354.121 36.8212L356.289 35.7166C358.201 36.9972 359.958 38.3566 362.451 41.5966L357.769 43.9818L354.121 36.8212ZM359.594 47.562L365.088 44.7625C366.442 46.3275 367.644 47.9697 369.605 51.4803L363.242 54.7225L359.594 47.562ZM335.198 26.0343C336.095 26.1213 336.995 26.2458 337.897 26.4152L335.908 27.4284L335.198 26.0343ZM322.51 27.8867C324.384 27.1388 328.269 25.9135 330.559 25.9816L332.503 29.7971L325.342 33.4456L322.51 27.8867ZM327.167 37.0259L334.327 33.3774L337.976 40.5379L330.815 44.1864L327.167 37.0259ZM332.639 47.7666L339.8 44.1182L343.448 51.2787L336.288 54.9272L332.639 47.7666ZM338.112 58.5074L345.273 54.859L348.921 62.0195L341.76 65.668L338.112 58.5074ZM343.585 69.2482L350.745 65.5998L354.394 72.7603L347.233 76.4087L343.585 69.2482ZM349.057 79.989L356.218 76.3405L359.866 83.5011L352.706 87.1495L349.057 79.989ZM354.53 90.7298L361.691 87.0813L365.339 94.2418L358.179 97.8903L354.53 90.7298ZM360.003 101.471L367.163 97.8221L370.193 103.769C368.903 105.661 365.628 108.084 363.921 109.161L360.003 101.471ZM312.843 35.4677C314.084 33.4771 317.31 30.9582 318.969 29.7876L321.762 35.2698L314.602 38.9183L312.843 35.4677ZM316.426 42.4986L323.586 38.8501L327.235 46.0106L320.074 49.6591L316.426 42.4986ZM321.899 53.2394L329.059 49.5909L332.708 56.7514L325.547 60.3999L321.899 53.2394ZM327.371 63.9801L334.532 60.3317L338.18 67.4922L331.02 71.1407L327.371 63.9801ZM332.844 74.7209L340.004 71.0725L343.653 78.233L336.492 81.8815L332.844 74.7209ZM338.317 85.4617L345.477 81.8132L349.126 88.9738L341.965 92.6222L338.317 85.4617ZM343.789 96.2025L350.95 92.554L354.598 99.7146L347.438 103.363L343.789 96.2025ZM349.262 106.943L356.423 103.295L360.302 110.909C358.38 111.562 354.446 112.692 352.106 112.525L349.262 106.943ZM310.234 39.4122L310.678 40.2838L309.482 40.8936C309.72 40.39 309.972 39.8968 310.234 39.4122ZM347.468 112.273C345.157 112.164 343.615 112.075 341.376 110.962L345.682 108.768L347.468 112.273ZM343.858 105.187L336.697 108.836L333.049 101.675L340.209 98.0267L343.858 105.187ZM338.385 94.4465L331.224 98.0949L327.576 90.9344L334.736 87.2859L338.385 94.4465ZM332.912 83.7057L325.752 87.3542L322.103 80.1936L329.264 76.5452L332.912 83.7057ZM327.439 72.9649L320.279 76.6134L316.63 69.4528L323.791 65.8044L327.439 72.9649ZM321.967 62.2241L314.806 65.8726L311.158 58.7121L318.318 55.0636L321.967 62.2241ZM316.494 51.4833L309.333 55.1318L306.734 50.0309C306.28 49.1395 306.929 47.3373 307.662 46.9637L312.846 44.3228L316.494 51.4833ZM374.708 136.513L354.85 122.47C359.106 122.069 363.25 120.915 367.141 118.933C370.49 117.226 373.453 115.008 376.016 112.378L374.708 136.513ZM372.796 100.026L370.744 95.9979L375.836 93.4029C375.187 95.9887 374.01 97.9833 372.796 100.026ZM376.08 88.7691L368.919 92.4176L365.271 85.2571L372.431 81.6086L376.08 88.7691ZM370.607 78.0284L363.447 81.6768L359.798 74.5163L366.959 70.8678L370.607 78.0284ZM365.134 67.2876L357.974 70.936L354.325 63.7755L361.486 60.127L365.134 67.2876ZM359.662 56.5468L352.501 60.1953L348.853 53.0347L356.013 49.3863L359.662 56.5468ZM354.189 45.806L347.029 49.4545L343.38 42.2939L350.541 38.6455L354.189 45.806ZM348.716 35.0652L341.556 38.7137L337.907 31.5532L343.877 28.5114C344.328 28.2818 345.333 28.4252 345.602 28.952L348.716 35.0652ZM377.669 82.6566L376.105 79.5879L377.692 78.7794C377.736 80.0897 377.727 81.3829 377.669 82.6566ZM377.431 74.5513L374.187 76.2041L370.539 69.0436L375.843 66.3408C376.232 68.3975 377.364 72.3307 377.431 74.5513ZM374.644 62.4422L368.715 65.4633L365.066 58.3028L371.517 55.0159C372.409 56.8162 374.055 60.4875 374.644 62.4422Z" fill="#36341F"/>
<path d="M395.821 168.828C396.335 168.059 396.955 167.378 397.632 166.761C397.165 166.341 396.716 165.903 396.183 165.564C395.499 165.129 394.71 164.846 393.899 164.791C392.154 164.673 390.535 165.471 389.289 166.649C388.093 167.779 387.317 169.249 386.591 170.705C386.099 171.691 385.668 172.708 385.263 173.735C387.972 173.348 390.768 173.907 393.378 174.759C393.507 173.811 393.896 172.848 394.226 171.995C394.652 170.894 395.165 169.812 395.821 168.828ZM401.65 182.92C401.401 184.202 401.264 185.565 401.334 186.894C400.968 187.012 400.593 187.313 400.238 187.397C400.159 187.43 399.62 187.573 399.372 187.605C399.243 187.641 399.052 187.636 398.846 187.616C400.75 186.372 401.726 184.088 401.373 181.698C400.907 178.542 398.311 176.688 395.558 175.555C395.857 174.868 396.026 174.127 396.279 173.418C396.608 172.497 397.001 171.605 397.504 170.765C398.407 169.256 399.636 167.981 401.243 167.227C402.636 166.573 404.308 166.389 405.715 167.093C406.399 167.435 407.027 167.952 407.453 168.59C407.898 169.257 408.074 169.98 408.389 170.702C408.392 170.709 408.399 170.709 408.402 170.716C407.437 171.29 406.557 172.013 405.833 172.862C403.44 175.667 402.342 179.362 401.65 182.92ZM409.924 190.611C409.403 190.948 409.151 191.05 408.648 191.284C408.036 191.569 407.323 191.611 406.673 191.446C405.245 191.082 404.312 189.653 403.925 188.315C403.339 186.284 403.762 184.103 404.218 182.091C404.59 180.453 405.037 178.81 405.723 177.272C407.046 174.307 409.548 171.619 413.008 171.541C414.548 171.507 415.94 172.065 416.942 173.253C418.007 174.515 418.357 176.027 418.81 177.548C416.344 178.667 414.318 180.861 413.003 183.218C411.83 185.32 410.584 187.943 409.924 190.611ZM281.186 183.024C285.791 181.521 290.738 184.045 292.237 188.651C298.191 206.936 312.819 219.678 332.377 223.613C350.751 227.305 368.889 222.236 380.43 210.372C379.282 208.553 378.356 206.591 377.74 204.559C376.253 199.654 375.822 194.309 376.425 189.218C376.946 184.826 378.738 179.155 382.972 177.012C385.773 175.593 389.283 176.125 392.143 177.041C394.692 177.858 398.26 178.959 398.867 182.001C400.054 187.959 391.456 186.505 388.341 185.093C387.215 184.582 386.338 186.533 387.439 187.054C388.506 187.558 389.694 187.985 390.925 188.28C391.036 188.379 391.174 188.462 391.344 188.517C391.942 188.711 392.517 188.878 393.061 189.196C393.552 189.484 394.019 189.817 394.449 190.188C395.373 190.986 396.213 191.9 396.89 192.916C398.293 195.023 399.145 197.411 399.931 199.8C400.026 200.088 400.474 200.072 400.482 199.743C400.545 196.965 399.496 194.282 398.021 191.963C397.305 190.837 396.476 189.66 395.498 188.653C395.707 188.635 395.918 188.621 396.123 188.59C397.606 189.76 399.919 189.842 401.329 188.511C401.378 188.466 401.44 188.394 401.5 188.331C401.836 190.128 402.662 191.773 404.276 192.951C405.513 193.854 407.133 194.165 408.624 193.831C408.894 193.771 409.18 193.675 409.462 193.56C409.409 194.812 409.543 196.037 409.956 197.182C411.14 200.468 414.97 203.116 418.384 201.308C420.867 199.993 421.757 197.321 422.712 194.72C424.496 195.049 427.829 194.452 428.699 194.256C429.906 193.963 429.452 192.111 428.249 192.392C426.684 192.766 425.095 192.645 423.523 192.719C423.862 191.963 424.234 191.235 424.716 190.605C425.354 189.772 424.094 188.905 423.378 189.502C421.779 190.834 421.168 192.75 420.526 194.666C419.923 196.467 419.157 198.817 417.234 199.624C415.286 200.441 413.283 198.996 412.34 197.346C411.009 195.017 411.698 192.062 412.49 189.677C413.704 186.017 415.344 181.846 418.81 179.775C422.552 177.538 426.608 179.523 429.169 182.569C433.514 187.736 433.348 195.784 430.376 201.548C425.707 210.606 416.52 216.92 406.795 219.53C403.273 220.476 399.339 220.384 395.593 219.769C395.553 219.817 395.528 219.872 395.487 219.919C379.964 237.938 354.457 245.943 328.921 240.811C321.714 239.363 314.96 236.935 308.791 233.655C293.074 225.298 281.194 211.402 275.559 194.075C274.06 189.469 276.579 184.519 281.186 183.024Z" fill="#36341F"/>
</svg>
