<svg width="447" height="490" viewBox="0 0 447 490" fill="none" xmlns="http://www.w3.org/2000/svg">
<path d="M363.561 450.425C383.49 436.712 389.48 424.804 387.289 408.396C386.204 400.311 381.105 391.498 366.392 387.064C354.256 383.405 338.477 383.609 323.996 384.393C287.764 386.353 250.873 391.041 215.437 387.227C183.606 383.805 157.028 373.931 126.496 368.663C100.693 364.227 72.301 363.197 45.0767 365.706C25.6331 367.52 4.38653 372.534 0.606352 381.453C-2.22393 388.207 5.16195 394.079 16.3474 398.604C77.9933 423.587 8.59319 440.257 32.2629 463.247C57.3478 487.675 198.668 491.506 229.995 489.178C306.878 483.469 343.594 464.129 363.561 450.425Z" fill="#7AA725"/>
<path d="M198.852 301.752L171.887 289.179L135.204 367.846L162.169 380.419L198.852 301.752Z" fill="#36341F"/>
<path d="M248.088 313.799L218.34 314.318L219.855 401.104L249.603 400.585L248.088 313.799Z" fill="#36341F"/>
<path d="M305.432 209.597C300.581 189.466 289.889 171.52 274.51 157.699C259.499 144.206 241.06 135.504 221.186 132.533C220.558 132.439 219.919 132.391 219.284 132.391C216.978 132.391 214.732 133.016 212.762 134.171C210.581 134.027 208.395 133.951 206.221 133.951C206.204 133.951 206.186 133.951 206.168 133.951C205.234 132.465 203.603 131.53 201.781 131.53C201.7 131.53 201.619 131.532 201.536 131.536C195.075 131.833 188.606 132.754 182.309 134.272C173.766 136.332 165.547 139.461 157.88 143.57C156.178 144.482 155.165 146.185 155.134 148.038C153.183 149.201 151.273 150.432 149.409 151.727C146.476 151.751 143.613 152.79 141.336 154.667C132.228 162.179 124.519 171.202 118.424 181.486C105.476 203.335 101.146 229.061 106.232 253.925C110.345 274.034 120.254 292.208 134.887 306.482C136.039 307.606 137.554 308.225 139.151 308.225C139.555 308.225 139.957 308.184 140.35 308.106C141.745 309.335 143.177 310.525 144.64 311.676C145.102 314.094 146.499 316.281 148.582 317.707C165.704 329.429 185.639 335.625 206.232 335.625C214.245 335.625 222.288 334.666 230.14 332.772C254.702 326.848 276.1 312.071 290.392 291.162C291.838 289.047 292.328 286.493 291.895 284.083C292.577 282.926 293.236 281.755 293.872 280.572C295.839 280.251 297.569 278.982 298.435 277.154C308.386 256.158 310.87 232.166 305.432 209.597Z" fill="#36341F"/>
<path d="M146.975 158.744C153.758 153.359 161.268 148.924 169.342 145.556C172.538 145.25 175.784 144.708 179.07 143.916C183.974 142.733 188.52 141.119 192.688 139.115C201.379 137.861 210.016 137.84 218.406 138.932C208.949 148.189 196.654 154.892 182.535 158.297C176.122 159.844 169.728 160.608 163.471 160.608C157.831 160.608 152.306 159.976 146.975 158.744ZM293.214 272.438C287.068 264.29 282.519 254.229 279.67 242.408C273.872 218.344 261.661 199.892 244.356 189.045C228.211 178.925 208.191 176.035 187.983 180.909C167.74 185.791 151.227 197.435 141.486 213.697C131.005 231.195 128.549 253.239 134.382 277.446C136.304 285.42 137.366 292.837 137.589 299.689C141.966 304.218 146.772 308.289 151.92 311.857C153.159 300.555 152.113 287.904 148.757 273.979C139.296 234.713 156.053 203.826 191.449 195.289C226.845 186.752 255.834 206.608 265.296 245.875C269.218 262.151 276.032 275.74 285.537 286.351C288.473 281.936 291.042 277.282 293.214 272.438Z" fill="white"/>
<path d="M183.29 138.347C189.453 136.861 195.619 136.004 201.728 135.723C202.754 135.676 203.188 137.015 202.337 137.591C195.94 141.925 188.422 145.211 179.878 147.271C173.25 148.87 166.663 149.496 160.296 149.18C159.269 149.129 158.951 147.75 159.858 147.264C167.164 143.349 175.019 140.342 183.29 138.347ZM229.158 328.697C201.162 335.449 173.026 329.363 150.948 314.248C149.39 313.181 148.52 311.353 148.678 309.471C149.549 299.078 148.466 287.498 145.403 274.788C135.45 233.484 153.207 200.962 190.64 191.934C228.076 182.906 258.697 203.761 268.65 245.066C272.228 259.914 278.266 272.425 286.615 282.349C288.159 284.184 288.287 286.816 286.933 288.797C273.731 308.11 253.631 322.795 229.158 328.697ZM294.65 275.358C294.041 276.641 292.284 276.855 291.403 275.741C284.488 267.003 279.42 256.098 276.316 243.217C270.734 220.049 259.049 202.328 242.524 191.97C227.172 182.347 208.089 179.61 188.792 184.264C169.456 188.927 153.706 200.011 144.446 215.471C134.44 232.177 132.119 253.327 137.736 276.638C139.949 285.822 141.063 294.323 141.086 302.116C141.091 303.818 139.03 304.669 137.811 303.481C124.302 290.302 114.424 273.069 110.336 253.085C105.475 229.321 109.663 204.488 122.028 183.624C127.92 173.682 135.36 165.028 144.001 157.902C145.96 156.286 148.525 155.599 151.023 156.05C155.08 156.781 159.243 157.155 163.477 157.155C169.462 157.155 175.584 156.423 181.726 154.941C194.018 151.977 204.853 146.411 213.499 138.781C215.434 137.072 218.014 136.296 220.567 136.678C258.838 142.401 291.747 170.691 301.359 210.579C306.801 233.164 303.899 255.841 294.65 275.358Z" fill="#B6D32B"/>
<path d="M151.421 308.925C152.174 298.789 151.128 287.516 148.31 275.386C165.418 295.448 190.86 308.197 219.23 308.197C244.041 308.197 266.612 298.445 283.329 282.58C283.718 283.067 284.108 283.553 284.508 284.029C267.897 309.724 239.01 326.774 206.203 326.774C185.745 326.774 166.808 320.144 151.421 308.925ZM126.034 215.001C126.034 199.214 129.985 184.334 136.942 171.29C122.071 187.809 113.007 209.654 113.007 233.578C113.007 258.153 122.575 280.53 138.173 297.197C137.796 290.979 136.757 284.303 135.062 277.276C132.608 267.097 131.636 257.31 132.115 248.088C128.193 237.8 126.034 226.649 126.034 215.001Z" fill="#8CBF2B"/>
<path d="M236.291 227.945L230.367 191.777C237.292 182.349 250.914 184.664 258.902 192.611C266.889 200.558 267.136 216.964 260.467 222.96C251.768 230.782 241.255 229.739 241.255 229.739C237.875 229.527 236.291 227.945 236.291 227.945ZM176.114 227.945L182.038 191.777C175.113 182.349 161.492 184.664 153.504 192.611C145.516 200.558 145.27 216.964 151.938 222.96C160.637 230.782 171.15 229.739 171.15 229.739C174.531 229.527 176.114 227.945 176.114 227.945Z" fill="white"/>
<path d="M145.151 177.558C150.219 172.493 156.883 167.683 163.797 165.59C167.493 164.472 171.3 163.941 175.16 163.989C178.461 164.029 183.506 164.009 185.488 167.139C186.055 168.034 185.698 169.383 184.768 169.887C181.955 171.41 177.862 169.877 174.812 169.722C171.589 169.559 168.266 169.72 165.081 170.246C157.868 171.435 151.656 173.557 146.189 178.597C145.496 179.236 144.479 178.23 145.151 177.558ZM144.986 208.213C144.952 216.345 149.053 224.931 157.65 226.777C157.731 226.794 157.766 226.672 157.684 226.652C152.935 225.488 146.464 214.434 150.208 202.123C152.306 195.225 155.968 190.704 163.224 188.794C166.418 187.953 169.99 187.386 173.093 188.577C170.997 190.479 169.23 193.428 168.033 195.366C167.505 196.221 167.046 197.127 166.646 198.064C170.587 197.919 175.576 199.765 173.342 203.116C171.471 205.735 168.082 204.709 164.901 203.984C164.736 204.864 164.6 205.744 164.5 206.612C164.023 210.749 164.483 215.001 165.778 218.959C166.966 222.589 169.047 227.179 172.445 229.336C171.612 229.456 170.776 229.55 169.942 229.623C169.395 229.67 169.382 230.516 169.942 230.486C179.728 229.971 190.103 225.614 192.912 215.289C197.697 197.705 176.101 176.787 159.012 185.539C151.149 189.565 145.024 199.335 144.986 208.213ZM248.608 165.59C245.025 164.506 241.337 163.971 237.593 163.984C234.228 163.996 228.945 163.936 226.917 167.139C226.35 168.034 226.708 169.383 227.637 169.887C230.455 171.412 234.55 169.874 237.593 169.722C240.814 169.561 244.141 169.721 247.325 170.246C254.539 171.436 260.748 173.556 266.216 178.597C266.909 179.236 267.926 178.23 267.254 177.558C262.187 172.494 255.521 167.683 248.608 165.59ZM232.839 250.003C231.33 249.096 229.657 248.802 228.292 247.614C227.057 246.539 224.345 244.155 224.341 242.432C224.339 241.718 223.316 241.592 223.111 242.266C222.582 244.005 223.114 245.815 224.038 247.396C223.373 247.893 222.914 248.566 222.296 249.306C221.299 250.498 220.081 251.658 218.819 252.562C205.9 261.82 191.189 254.736 188.324 251.969C189.516 251.071 190.481 249.911 190.439 248.328C190.426 247.848 189.795 247.525 189.443 247.915C188.505 248.957 187.688 250.077 186.551 250.922C185.412 251.769 183.782 253.02 182.329 253.034C181.629 253.041 181.411 254.203 182.157 254.307C184.057 254.572 185.816 253.573 187.392 252.602C187.564 252.496 187.735 252.385 187.904 252.27C192.854 258.884 202.728 261.401 210.604 260.443C214.344 259.989 218.034 258.69 221.155 256.559C222.923 255.353 225.73 253.105 226.765 250.671C228.549 252.21 231.129 253.479 233.044 251.597C233.516 251.134 233.394 250.337 232.839 250.003ZM198.993 236.405C199.154 236.472 199.285 236.225 199.161 236.116C195.392 232.788 198.045 226.407 202.775 225.914C204.549 225.73 206.422 226.468 207.719 227.677C209.306 229.158 209.452 230.722 209.659 232.745C209.723 233.371 210.455 233.587 210.826 233.061C212.465 230.739 211.557 226.981 209.985 224.876C207.906 222.094 204.21 221.402 200.99 222.395C194.393 224.43 191.801 233.409 198.993 236.405ZM253.394 185.539C236.304 176.787 214.709 197.705 219.493 215.289C222.302 225.614 232.677 229.971 242.463 230.486C243.023 230.516 243.011 229.67 242.463 229.623C241.629 229.55 240.793 229.456 239.96 229.336C243.358 227.179 245.44 222.589 246.627 218.959C247.922 215.001 248.383 210.749 247.905 206.612C247.805 205.744 247.67 204.864 247.504 203.984C244.323 204.709 240.934 205.735 239.064 203.116C236.829 199.765 241.818 197.919 245.76 198.064C245.359 197.127 244.9 196.221 244.372 195.366C243.175 193.428 241.409 190.479 239.312 188.577C242.415 187.386 245.988 187.953 249.182 188.794C256.438 190.704 260.1 195.225 262.197 202.123C265.941 214.434 259.471 225.488 254.721 226.652C254.64 226.672 254.674 226.794 254.755 226.777C263.352 224.931 267.453 216.345 267.419 208.213C267.381 199.335 261.256 189.565 253.394 185.539Z" fill="#36341F"/>
<path d="M267.508 414.496C267.509 414.441 267.519 414.388 267.513 414.333C266.178 401.906 261.289 389.845 254.94 379.106C258.363 377.488 260.152 374.14 259.948 370.303C259.763 366.824 258.436 363.151 255.675 360.88C252.819 358.531 249.183 358.85 245.716 358.531C238.243 357.842 230.577 356.686 223.126 358.181C219.757 358.856 215.921 360.197 213.939 363.188C212.82 364.878 212.575 366.889 212.387 368.861C212.241 370.395 212.229 371.961 212.546 373.476C213.35 377.313 216.39 379.125 219.856 379.649C218.076 381.833 216.316 384.032 214.672 386.322C212.59 389.222 210.986 392.578 209.448 395.791C207.92 398.985 206.498 402.217 205.349 405.567C204.776 407.237 204.239 408.92 203.771 410.622C203.517 411.545 203.099 412.646 202.905 413.726C202.285 414.305 201.684 414.898 201.107 415.499C196.601 420.194 193.164 425.928 191.263 432.158C189.247 438.761 188.901 446.347 192.034 452.663C195.245 459.136 202.028 462.255 208.673 464.034C224.219 468.195 241.359 468.995 257.159 465.774C263.559 464.469 270.097 461.881 274.025 456.398C278.167 450.619 278.766 442.175 277.868 435.337C276.835 427.471 273.347 419.945 267.508 414.496Z" fill="#36341F"/>
<path d="M202.973 419.632C207.343 414.618 212.824 411.383 218.604 408.254C220.096 407.447 219.014 405.4 217.514 405.668C214.28 406.247 211.225 407.602 208.423 409.395C208.655 408.632 208.872 407.863 209.121 407.105C210.19 403.84 211.315 400.568 212.64 397.397C213.949 394.268 215.564 391.305 216.993 388.237C218.329 385.369 219.692 382.528 221.288 379.8C223.691 379.925 226.179 379.502 228.191 378.754C228.769 378.539 228.823 377.718 228.191 377.523C226.727 377.07 225.217 376.62 223.687 376.488C222.503 376.387 221.339 376.276 220.181 375.997C219.254 375.775 218.6 375.585 217.852 375.11C217.387 374.815 216.932 374.284 216.699 373.771C215.896 372.001 216.098 369.272 216.431 367.215C216.943 364.059 219.722 362.672 222.562 361.965C228.733 360.428 235.481 361.263 241.73 361.822C244.528 362.073 247.323 362.217 250.122 362.409C253.105 362.613 254.652 364.704 255.209 367.441C255.767 370.187 255.97 373.94 253.129 375.512C251.417 376.459 249.225 375.965 247.377 375.764C246.144 375.63 244.914 375.474 243.678 375.369C242.365 375.257 241.444 375.332 240.244 375.898C239.177 376.4 239.119 378.305 240.244 378.788C242.483 379.748 245.2 379.599 247.626 379.826C249.309 379.983 251.021 380.14 252.682 379.851C256.425 390.151 261.134 400.094 262.961 410.943C261.326 409.882 259.6 408.961 257.797 408.195C254.296 406.707 250.377 405.573 246.56 406.079C245.749 406.186 245.085 406.614 244.967 407.485C244.869 408.215 245.333 409.129 246.129 409.265C249.17 409.783 252.226 410.171 255.147 411.22C258.013 412.25 260.735 413.822 263.092 415.748C267.98 419.744 271.358 425.188 272.978 431.276C273.77 434.249 274.168 437.417 274.139 440.579C271.971 445.186 267.123 447.798 262.598 449.664C256.628 452.125 250.086 453.711 243.67 454.392C237.007 455.098 230.218 454.997 223.59 453.998C217.759 453.118 211.758 451.732 206.395 449.216C201.738 447.032 196.878 443.967 194.19 439.447C194.282 438.552 194.41 437.668 194.578 436.81C195.82 430.469 198.726 424.506 202.973 419.632Z" fill="white"/>
<path d="M272.334 450.8C270.189 456.503 264.863 459.447 259.275 461.01C252.476 462.912 245.196 463.466 238.164 463.554C230.673 463.646 223.181 462.924 215.844 461.412C209.711 460.149 202.611 458.64 198.123 453.913C195.135 450.766 194.043 446.441 194.048 442.144C194.58 443.173 195.174 444.17 195.862 445.107C197.554 447.412 199.838 449.21 202.226 450.757C207.58 454.225 213.898 456.038 220.118 457.177C234.251 459.766 249.57 458.754 263.078 453.718C266.784 452.336 270.402 450.39 273.264 447.7C273.007 448.753 272.712 449.794 272.334 450.8Z" fill="#C1C6D9"/>
<path d="M169.748 405.374C171.289 396.58 170.366 387.594 168.503 378.924C168.127 377.171 167.672 375.448 167.13 373.746C169.371 373.346 171.31 371.669 171.943 369.388C172.811 366.254 171.773 362.488 170.113 359.796C168.358 356.95 165.167 355.179 162.303 353.6C156.194 350.231 149.308 347.979 142.378 347.168C137.039 346.545 130.73 351.906 130.963 357.397C130.993 358.121 131.144 358.873 131.409 359.547C131.748 360.412 132.519 360.917 133.288 361.387C130.428 362.93 127.168 363.492 123.867 363.492C121.584 363.493 119.381 363.236 117.129 362.884C115.253 362.59 113.372 362.395 111.493 362.138C109.062 358.606 107.523 354.335 105.166 350.796C101.01 344.555 93.7311 341.694 86.3815 342.493C78.9724 343.299 71.6629 347.18 66.8201 352.853C61.189 359.45 59.2045 368.586 60.9581 377.005C62.6599 385.174 68.2561 392.016 74.9281 396.775C82.6533 402.284 91.6885 405.212 100.771 407.641C110.516 410.247 120.167 412.829 129.513 416.685C134.012 418.542 138.338 420.835 143.019 422.218C147.296 423.482 152.175 424.29 156.587 423.298C164.786 421.453 168.443 412.825 169.748 405.374Z" fill="#36341F"/>
<path d="M117.14 379.227C117.629 379.142 117.901 378.416 117.511 377.977C115.857 376.119 113.936 374.58 112.046 372.97C110.164 371.368 108.282 369.762 106.366 368.201C102.743 365.251 99.1562 362.251 95.4833 359.364C89.5169 354.674 82.366 350.483 74.6093 351.664C77.3016 349.764 80.3577 348.347 83.5129 347.426C89.5452 345.665 96.8176 346.288 101.119 351.344C105.074 355.993 106.389 362.577 111.376 366.406C112.635 367.373 113.934 367.953 115.485 368.292C116.463 368.505 116.819 367.211 116.049 366.718C115.208 366.179 114.463 365.558 113.778 364.887C116.936 366.404 120.728 366.898 124.073 366.946C128.596 367.01 133.405 365.768 137.002 362.94C137.477 363.067 137.954 363.18 138.427 363.271C140.122 363.595 141.839 363.795 143.522 364.18C145.181 364.56 147.106 365.002 148.457 366.062C149.186 366.635 150.416 365.778 149.776 364.942C149.077 364.029 148.213 363.085 147.269 362.414C146.161 361.627 144.612 361.263 143.315 360.926C140.866 360.29 138.213 359.989 135.902 358.919C135.423 358.697 134.915 358.454 134.498 358.128C134.459 358.01 134.417 357.892 134.386 357.771C134.356 357.628 134.341 357.485 134.326 357.34C134.22 356.271 134.616 355.237 135.173 354.343C136.296 352.539 138.236 351.183 140.3 350.698C141.46 350.426 142.58 350.737 143.729 350.964C145.137 351.241 146.541 351.554 147.932 351.908C150.804 352.64 153.611 353.59 156.325 354.781C159.029 355.967 161.658 357.369 164.095 359.041C165.091 359.725 165.991 360.376 166.665 361.389C167.428 362.534 167.963 363.855 168.202 365.213C168.527 367.052 168.366 370.672 165.521 369.946C162.662 369.216 160.23 365.831 157.111 366.305C155.859 366.495 155.276 367.92 156.21 368.857C157.328 369.98 158.897 370.596 160.249 371.423C161.231 372.024 162.255 372.698 163.338 373.183C165.726 381.377 166.612 389.721 166.242 398.245C166.224 398.66 166.199 399.075 166.171 399.49C165.429 398.845 164.601 398.29 163.751 397.808C161.056 396.28 158.009 395.444 155.08 394.495C147.76 392.123 140.399 389.883 133.074 387.534C129.134 386.27 125.335 384.665 121.788 382.528C119.645 382.027 118.127 380.894 117.14 379.227Z" fill="white"/>
<path d="M158.688 417.778C155.562 419.86 151.676 419.637 148.121 419.019C143.811 418.269 139.97 416.595 136.01 414.818C127.241 410.884 118.149 407.78 108.867 405.307C100.012 402.949 90.9146 400.905 82.7605 396.576C76.2354 393.112 70.1318 388.068 66.9215 381.271C63.6544 374.354 63.9294 366.009 67.622 359.313C67.931 358.753 68.2712 358.217 68.6262 357.692C69.9928 357.053 71.4966 356.744 73.094 356.898C75.881 357.166 78.5543 358.417 81.0079 359.698C86.6879 362.666 91.237 366.965 96.0211 371.147C102.942 377.196 109.991 383.088 117.579 388.291C121.317 390.853 125.145 393.146 129.322 394.924C133.388 396.655 137.601 398.021 141.811 399.351C146.518 400.837 151.264 402.259 155.81 404.199C159.304 405.691 163.487 407.89 163.394 411.997C162.33 414.281 160.784 416.382 158.688 417.778ZM159.142 398.281C154.859 396.666 150.444 395.34 146.106 393.878C141.687 392.389 137.255 390.934 132.879 389.318C128.849 387.831 124.656 386.083 121.538 383.034C121.331 382.831 121.531 382.465 121.788 382.528C120.205 381.476 118.656 380.374 117.14 379.227C117.007 379.248 116.861 379.231 116.703 379.137C112.83 376.821 109.383 373.639 105.903 370.774C102.431 367.915 99.0284 364.972 95.5718 362.095C89.3513 356.917 81.5904 351.267 73.0004 352.945C72.9812 352.949 72.965 352.943 72.9463 352.945C71.8425 353.867 70.8184 354.879 69.8996 355.987C74.0756 354.691 78.9185 355.572 82.9188 357.558C89.2027 360.676 94.4455 365.449 99.7487 369.951C107.234 376.304 114.844 382.634 123.164 387.879C131.177 392.93 140.44 395.227 149.333 398.194C153.582 399.611 158.26 401.003 162.002 403.529C163.188 404.33 164.29 405.37 165.159 406.556C165.462 405.236 165.7 403.899 165.874 402.554C165.851 402.523 165.833 402.491 165.809 402.459C165.367 401.88 164.821 401.381 164.245 400.929C163.624 400.49 162.983 400.081 162.332 399.693C161.305 399.143 160.221 398.688 159.142 398.281Z" fill="#C1C6D9"/>
<path d="M127.989 249.885C126.78 245.639 122.346 243.182 118.101 244.401C101.243 249.224 84.1515 244.665 71.2048 231.884C59.8105 220.632 54.342 205.612 56.2347 191.609C59.9403 191.973 63.7929 191.56 67.0467 189.767C71.7263 187.187 75.7005 182.871 79.5334 179.147C81.3357 177.396 83.3863 175.902 85.6053 174.723C86.8833 174.044 88.3676 173.304 88.3421 171.622C88.3311 170.902 88.0002 170.222 87.5007 169.703C85.5024 167.628 82.2935 167.644 79.7317 168.699C77.0953 169.785 74.9613 171.81 72.698 173.509C72.1054 173.954 71.3072 174.092 70.6263 173.799C69.317 173.236 69.5368 171.703 69.9963 170.577C71.6354 166.556 75.0539 163.583 78.2957 160.695C81.7322 157.632 85.211 154.305 87.9106 150.577C88.7584 149.407 89.556 148.139 89.4594 146.593C89.4324 146.16 89.3058 145.73 89.0765 145.361C87.8716 143.421 85.4348 144.275 83.6299 145.262C79.4817 147.531 70.3541 158.448 68.482 159.73C68.1546 159.954 67.7647 160.169 67.3572 159.877C66.9449 159.582 66.8531 159 67.0933 158.554C70.2797 152.629 75.4091 146.289 78.2422 140.094C78.8946 138.666 79.4675 137.123 79.0292 135.534C78.8026 134.713 78.2581 133.985 77.4804 133.637C75.7368 132.859 74.025 134.267 72.8139 135.617C69.6557 139.139 62.5025 152.686 60.9009 154.363C60.443 154.843 59.6399 155.27 59.1813 154.791C58.8697 154.466 58.9647 153.94 59.089 153.506C60.8886 147.237 63.7546 141.425 66.5756 133.646C66.9148 132.71 66.8864 131.589 66.2606 130.781C65.8076 130.196 65.0723 129.916 64.3327 129.896C62.9329 129.858 61.7205 130.659 60.758 131.615C56.5589 135.786 56.1763 143.065 50.335 153.241C50.0434 153.749 49.4768 154.229 48.9307 154.144C48.8386 154.129 48.746 154.098 48.6538 154.048C48.188 153.794 48.0084 153.211 48.1616 152.703C49.0962 149.604 50.0312 146.506 50.9662 143.408C51.4552 141.786 51.9376 140 51.2641 138.447C50.5142 136.716 48.2214 136.297 46.8055 137.453C44.9531 138.966 44.3092 142.054 43.6379 144.215C41.7697 150.229 39.1973 156.031 37.7913 162.169C36.3851 168.308 35.0693 174.395 37.9221 180.009C38.7957 181.728 39.9412 183.27 41.2708 184.641C36.6792 204.948 43.6953 227.199 59.9669 243.266C64.7366 247.975 70.0154 251.843 75.6399 254.834C89.9713 262.454 106.533 264.349 122.504 259.774C126.751 258.558 129.208 254.131 127.989 249.885Z" fill="#36341F"/>
<path d="M316.495 97.5389C295.35 108.313 289.507 139.373 303.469 166.775C309.279 178.177 317.621 187.166 326.901 193.013L326.883 193.056L375.361 227.314L381.795 239.941C380.584 241.99 381.375 243.542 382.249 245.258L396.941 274.093C398.715 277.575 402.936 278.983 406.42 277.208C409.903 275.433 411.246 271.191 409.472 267.708L394.78 238.873C393.906 237.158 393.115 235.606 390.745 235.381L384.361 222.852L387.625 162.895L387.556 162.889C388.456 151.73 386.118 139.382 380.164 127.696C366.202 100.295 337.641 86.7647 316.495 97.5389ZM330.071 183.074C329.527 182.686 328.989 182.283 328.454 181.867L329.249 181.462L330.071 183.074ZM327.644 177.919L325.187 179.171C323.43 177.811 320.913 174.584 319.478 173.061L323.996 170.759L327.644 177.919ZM322.171 167.178L317.029 169.799C315.794 168.173 313.791 164.684 312.859 162.904L318.523 160.018L322.171 167.178ZM316.699 156.438L311.122 159.279C309.435 155.629 308.813 153.691 308.342 151.676L313.05 149.277L316.699 156.438ZM311.226 145.697L307.331 147.681C306.175 143.761 306.108 141.54 306.196 139.24L307.577 138.536L311.226 145.697ZM352.033 110.343C352.172 110.435 352.312 110.526 352.451 110.62L352.231 110.732L352.033 110.343ZM354.121 114.821L356.289 113.717C358.201 114.997 359.958 116.357 362.451 119.597L357.769 121.982L354.121 114.821ZM359.594 125.562L365.088 122.762C366.442 124.327 367.644 125.97 369.605 129.48L363.242 132.723L359.594 125.562ZM335.198 104.034C336.095 104.121 336.995 104.246 337.897 104.415L335.908 105.428L335.198 104.034ZM322.51 105.887C324.384 105.139 328.269 103.913 330.559 103.982L332.503 107.797L325.342 111.446L322.51 105.887ZM327.167 115.026L334.327 111.377L337.976 118.538L330.815 122.186L327.167 115.026ZM332.639 125.767L339.8 122.118L343.448 129.279L336.288 132.927L332.639 125.767ZM338.112 136.507L345.273 132.859L348.921 140.019L341.76 143.668L338.112 136.507ZM343.585 147.248L350.745 143.6L354.394 150.76L347.233 154.409L343.585 147.248ZM349.057 157.989L356.218 154.341L359.866 161.501L352.706 165.15L349.057 157.989ZM354.53 168.73L361.691 165.081L365.339 172.242L358.179 175.89L354.53 168.73ZM360.003 179.471L367.163 175.822L370.193 181.769C368.903 183.661 365.628 186.084 363.921 187.161L360.003 179.471ZM312.843 113.468C314.084 111.477 317.31 108.958 318.969 107.788L321.762 113.27L314.602 116.918L312.843 113.468ZM316.426 120.499L323.586 116.85L327.235 124.011L320.074 127.659L316.426 120.499ZM321.899 131.239L329.059 127.591L332.708 134.751L325.547 138.4L321.899 131.239ZM327.371 141.98L334.532 138.332L338.18 145.492L331.02 149.141L327.371 141.98ZM332.844 152.721L340.004 149.072L343.653 156.233L336.492 159.881L332.844 152.721ZM338.317 163.462L345.477 159.813L349.126 166.974L341.965 170.622L338.317 163.462ZM343.789 174.202L350.95 170.554L354.598 177.715L347.438 181.363L343.789 174.202ZM349.262 184.943L356.423 181.295L360.302 188.909C358.38 189.562 354.446 190.692 352.106 190.525L349.262 184.943ZM310.234 117.412L310.678 118.284L309.482 118.894C309.72 118.39 309.972 117.897 310.234 117.412ZM347.468 190.273C345.157 190.164 343.615 190.075 341.376 188.962L345.682 186.768L347.468 190.273ZM343.858 183.187L336.697 186.836L333.049 179.675L340.209 176.027L343.858 183.187ZM338.385 172.446L331.224 176.095L327.576 168.934L334.736 165.286L338.385 172.446ZM332.912 161.706L325.752 165.354L322.103 158.194L329.264 154.545L332.912 161.706ZM327.439 150.965L320.279 154.613L316.63 147.453L323.791 143.804L327.439 150.965ZM321.967 140.224L314.806 143.873L311.158 136.712L318.318 133.064L321.967 140.224ZM316.494 129.483L309.333 133.132L306.734 128.031C306.28 127.139 306.929 125.337 307.662 124.964L312.846 122.323L316.494 129.483ZM374.708 214.513L354.85 200.47C359.106 200.069 363.25 198.915 367.141 196.933C370.49 195.226 373.453 193.008 376.016 190.378L374.708 214.513ZM372.796 178.026L370.744 173.998L375.836 171.403C375.187 173.989 374.01 175.983 372.796 178.026ZM376.08 166.769L368.919 170.418L365.271 163.257L372.431 159.609L376.08 166.769ZM370.607 156.028L363.447 159.677L359.798 152.516L366.959 148.868L370.607 156.028ZM365.134 145.288L357.974 148.936L354.325 141.776L361.486 138.127L365.134 145.288ZM359.662 134.547L352.501 138.195L348.853 131.035L356.013 127.386L359.662 134.547ZM354.189 123.806L347.029 127.454L343.38 120.294L350.541 116.645L354.189 123.806ZM348.716 113.065L341.556 116.714L337.907 109.553L343.877 106.511C344.328 106.282 345.333 106.425 345.602 106.952L348.716 113.065ZM377.669 160.657L376.105 157.588L377.692 156.779C377.736 158.09 377.727 159.383 377.669 160.657ZM377.431 152.551L374.187 154.204L370.539 147.044L375.843 144.341C376.232 146.398 377.364 150.331 377.431 152.551ZM374.644 140.442L368.715 143.463L365.066 136.303L371.517 133.016C372.409 134.816 374.055 138.487 374.644 140.442Z" fill="#36341F"/>
<path d="M395.821 246.828C396.335 246.059 396.955 245.378 397.632 244.761C397.165 244.341 396.716 243.903 396.183 243.564C395.499 243.129 394.71 242.846 393.899 242.791C392.154 242.673 390.535 243.471 389.289 244.649C388.093 245.779 387.317 247.249 386.591 248.705C386.099 249.691 385.668 250.708 385.263 251.735C387.972 251.348 390.768 251.907 393.378 252.759C393.507 251.811 393.896 250.848 394.226 249.995C394.652 248.894 395.165 247.812 395.821 246.828ZM401.65 260.92C401.401 262.202 401.264 263.565 401.334 264.894C400.968 265.012 400.593 265.313 400.238 265.397C400.159 265.43 399.62 265.573 399.372 265.605C399.243 265.641 399.052 265.636 398.846 265.616C400.75 264.372 401.726 262.088 401.373 259.698C400.907 256.542 398.311 254.688 395.558 253.555C395.857 252.868 396.026 252.127 396.279 251.418C396.608 250.497 397.001 249.605 397.504 248.765C398.407 247.256 399.636 245.981 401.243 245.227C402.636 244.573 404.308 244.389 405.715 245.093C406.399 245.435 407.027 245.952 407.453 246.59C407.898 247.257 408.074 247.98 408.389 248.702C408.392 248.709 408.399 248.709 408.402 248.716C407.437 249.29 406.557 250.013 405.833 250.862C403.44 253.667 402.342 257.362 401.65 260.92ZM409.924 268.611C409.403 268.948 409.151 269.05 408.648 269.284C408.036 269.569 407.323 269.611 406.673 269.446C405.245 269.082 404.312 267.653 403.925 266.315C403.339 264.284 403.762 262.103 404.218 260.091C404.59 258.453 405.037 256.81 405.723 255.272C407.046 252.307 409.548 249.619 413.008 249.541C414.548 249.507 415.94 250.065 416.942 251.253C418.007 252.515 418.357 254.027 418.81 255.548C416.344 256.667 414.318 258.861 413.003 261.218C411.83 263.32 410.584 265.943 409.924 268.611ZM281.186 261.024C285.791 259.521 290.738 262.045 292.237 266.651C298.191 284.936 312.819 297.678 332.377 301.613C350.751 305.305 368.889 300.236 380.43 288.372C379.282 286.553 378.356 284.591 377.74 282.559C376.253 277.654 375.822 272.309 376.425 267.218C376.946 262.826 378.738 257.155 382.972 255.012C385.773 253.593 389.283 254.125 392.143 255.041C394.692 255.858 398.26 256.959 398.867 260.001C400.054 265.959 391.456 264.505 388.341 263.093C387.215 262.582 386.338 264.533 387.439 265.054C388.506 265.558 389.694 265.985 390.925 266.28C391.036 266.379 391.174 266.462 391.344 266.517C391.942 266.711 392.517 266.878 393.061 267.196C393.552 267.484 394.019 267.817 394.449 268.188C395.373 268.986 396.213 269.9 396.89 270.916C398.293 273.023 399.145 275.411 399.931 277.8C400.026 278.088 400.474 278.072 400.482 277.743C400.545 274.965 399.496 272.282 398.021 269.963C397.305 268.837 396.476 267.66 395.498 266.653C395.707 266.635 395.918 266.621 396.123 266.59C397.606 267.76 399.919 267.842 401.329 266.511C401.378 266.466 401.44 266.394 401.5 266.331C401.836 268.128 402.662 269.773 404.276 270.951C405.513 271.854 407.133 272.165 408.624 271.831C408.894 271.771 409.18 271.675 409.462 271.56C409.409 272.812 409.543 274.037 409.956 275.182C411.14 278.468 414.97 281.116 418.384 279.308C420.867 277.993 421.757 275.321 422.712 272.72C424.496 273.049 427.829 272.452 428.699 272.256C429.906 271.963 429.452 270.111 428.249 270.392C426.684 270.766 425.095 270.645 423.523 270.719C423.862 269.963 424.234 269.235 424.716 268.605C425.354 267.772 424.094 266.905 423.378 267.502C421.779 268.834 421.168 270.75 420.526 272.666C419.923 274.467 419.157 276.817 417.234 277.624C415.286 278.441 413.283 276.996 412.34 275.346C411.009 273.017 411.698 270.062 412.49 267.677C413.704 264.017 415.344 259.846 418.81 257.775C422.552 255.538 426.608 257.523 429.169 260.569C433.514 265.736 433.348 273.784 430.376 279.548C425.707 288.606 416.52 294.92 406.795 297.53C403.273 298.476 399.339 298.384 395.593 297.769C395.553 297.817 395.528 297.872 395.487 297.919C379.964 315.938 354.457 323.943 328.921 318.811C321.714 317.363 314.96 314.935 308.791 311.655C293.074 303.298 281.194 289.402 275.559 272.075C274.06 267.469 276.579 262.519 281.186 261.024Z" fill="#36341F"/>
<path d="M98.5732 77.3152C106.427 71.49 108.049 61.4854 101.789 53.0448C95.8146 44.99 85.8499 43.1 77.6871 49.1541C69.802 55.0022 68.1543 64.9067 74.4145 73.3473C80.4457 81.4793 90.3641 83.4036 98.5732 77.3152ZM82.2378 67.545C76.1004 60.592 74.4589 54.9926 78.3012 52.1429C81.9583 49.4306 87.5909 51.6394 93.9652 58.8472C100.118 65.7887 101.77 71.4996 97.9591 74.3264C94.302 77.0387 88.6694 74.8299 82.2378 67.545Z" fill="#C9E44A" stroke="#14523C" stroke-width="6.45876" stroke-linecap="round"/>
<path d="M118.588 36.1343L123.966 48.9824C126.481 54.99 123.552 55.2579 124.45 57.4022C125.229 59.263 128.158 58.3493 130.448 57.4529C132.712 56.4428 135.419 54.9975 134.64 53.1368C133.742 50.9924 131.496 52.8907 128.981 46.8831L124.961 37.278C124.694 36.64 124.915 36.4224 125.517 36.816L144.683 49.5159C145.664 50.1674 147.39 50.3611 148.489 49.9012L151.413 48.6772C152.051 48.4102 152.339 47.7062 152.072 47.0683L143.185 25.8378C140.671 19.8302 143.599 19.5624 142.702 17.4181C141.923 15.5573 138.994 16.471 136.685 17.3748C134.439 18.3775 131.733 19.8228 132.512 21.6835C133.409 23.8278 135.655 21.9296 138.17 27.9372L141.278 35.3625C141.545 36.0005 141.317 36.2004 140.737 35.86L123.393 24.8758C122.387 24.2139 120.7 24.066 119.619 24.5185L118.468 25.0007C116.146 25.9725 111.98 27.6123 112.929 29.8807C113.827 32.025 116.073 30.1267 118.588 36.1343ZM129.917 57.6755L130.448 57.4529C130.643 57.3713 130.821 57.2972 130.998 57.223L131.813 56.8817L129.917 57.6755ZM136.685 17.3748L136.154 17.5973L138.068 16.7961L137.235 17.1448C137.057 17.219 136.88 17.2932 136.685 17.3748Z" fill="#C9E44A"/>
<path d="M130.448 57.4529C128.158 58.3493 125.229 59.263 124.45 57.4022C123.552 55.2579 126.481 54.99 123.966 48.9824L118.588 36.1343C116.073 30.1267 113.827 32.025 112.929 29.8807C111.98 27.6123 116.146 25.9725 118.468 25.0007L119.619 24.5185C120.7 24.066 122.387 24.2139 123.393 24.8758L140.737 35.86C141.317 36.2004 141.545 36.0005 141.278 35.3625L138.17 27.9372C135.655 21.9296 133.409 23.8278 132.512 21.6835C131.733 19.8228 134.439 18.3775 136.685 17.3748M130.448 57.4529C132.712 56.4428 135.419 54.9975 134.64 53.1368C133.742 50.9924 131.496 52.8907 128.981 46.8831L124.961 37.278C124.694 36.64 124.915 36.4224 125.517 36.816L144.683 49.5159C145.664 50.1674 147.39 50.3611 148.489 49.9012L151.413 48.6772C152.051 48.4102 152.339 47.7062 152.072 47.0683L143.185 25.8378C140.671 19.8302 143.599 19.5624 142.702 17.4181C141.923 15.5573 138.994 16.471 136.685 17.3748M130.448 57.4529L129.917 57.6755M130.448 57.4529C130.643 57.3713 130.821 57.2972 130.998 57.223L131.813 56.8817L129.917 57.6755M136.685 17.3748L136.154 17.5973M136.685 17.3748C136.88 17.2932 137.057 17.219 137.235 17.1448L138.068 16.7961L136.154 17.5973M129.084 58.0242L129.917 57.6755M135.321 17.946L136.154 17.5973" stroke="#14523C" stroke-width="6.45876" stroke-linecap="round"/>
<path d="M198.028 29.661C197.211 28.9578 196.291 29.4009 195.053 30.7527C192.937 33.0468 190.287 34.3383 187.918 34.7272C182.496 35.617 178.862 31.1515 176.745 22.7576C174.668 14.727 175.678 9.61614 179.925 8.91923C182.598 8.48054 185.829 9.89721 185.376 14.1378C185.174 18.0063 188.597 19.4108 191.422 18.9472C194.246 18.4836 196.164 15.8133 195.765 12.4328C194.636 6.50491 186.776 4.99146 180.595 6.00572C170.889 7.59867 164.909 15.6471 166.611 26.0171C168.251 36.0079 176.188 42.2591 185.686 40.7004C191.487 39.7484 194.207 38.0559 197.827 32.9452C198.784 31.5421 198.856 30.44 198.028 29.661Z" fill="#C9E44A" stroke="#14523C" stroke-width="6.45876" stroke-linecap="round"/>
<path d="M223.132 37.9531L242.09 39.2216C243.278 39.3011 244.321 38.3889 244.401 37.2005L244.921 29.418C245.064 27.2902 244.508 26.6754 243.626 26.6164C240.962 26.4381 241.849 34.7577 234.757 34.2831L228.834 33.8868C228.144 33.8407 227.644 33.2488 227.69 32.5588L228.929 14.0418C229.364 7.54365 232.123 8.61395 232.278 6.29454C232.442 3.84095 227.95 3.63667 225.439 3.46865C222.928 3.30063 218.449 2.90466 218.285 5.35825C218.13 7.67766 220.987 6.98316 220.553 13.4813L219.623 27.3786C219.188 33.8768 216.448 32.8078 216.293 35.1272C216.129 37.5808 220.621 37.7851 223.132 37.9531Z" fill="#C9E44A" stroke="#14523C" stroke-width="6.45876" stroke-linecap="round"/>
<path d="M274.548 46.7699C282.473 49.1691 288.539 47.232 291.284 38.167L294.59 27.2449C296.477 21.0116 298.906 22.6701 299.58 20.4452C300.164 18.5145 297.324 17.3536 294.969 16.5804C292.598 15.923 289.591 15.3137 289.007 17.2444C288.333 19.4693 291.274 19.4362 289.387 25.6695L286.08 36.5916C284.421 42.0711 281.745 43.9505 277.35 42.6201C273.654 41.5012 272.094 38.4997 273.797 32.8731L277.104 21.951C278.991 15.7177 281.42 17.3762 282.093 15.1514C282.806 12.7978 278.494 11.5927 276.066 10.8579C273.658 10.1287 269.401 8.73972 268.689 11.0933C268.015 13.3182 270.956 13.2851 269.069 19.5184L265.762 30.4405C263.719 37.1887 264.435 43.7083 274.548 46.7699ZM294.417 16.4134L296.403 17.0146L295.539 16.753C295.355 16.6973 295.171 16.6416 294.969 16.5804L294.417 16.4134Z" fill="#C9E44A"/>
<path d="M294.969 16.5804C297.324 17.3536 300.164 18.5145 299.58 20.4452C298.906 22.6701 296.477 21.0116 294.59 27.2449L291.284 38.167C288.539 47.232 282.473 49.1691 274.548 46.7699C264.435 43.7083 263.719 37.1887 265.762 30.4405L269.069 19.5184C270.956 13.2851 268.015 13.3182 268.689 11.0933C269.401 8.73972 273.658 10.1287 276.066 10.8579C278.494 11.5927 282.806 12.7978 282.093 15.1514C281.42 17.3762 278.991 15.7177 277.104 21.951L273.797 32.8731C272.094 38.4997 273.654 41.5012 277.35 42.6201C281.745 43.9505 284.421 42.0711 286.08 36.5916L289.387 25.6695C291.274 19.4362 288.333 19.4693 289.007 17.2444C289.591 15.3137 292.598 15.923 294.969 16.5804ZM294.969 16.5804C295.171 16.6416 295.355 16.6973 295.539 16.753L296.403 17.0146L294.417 16.4134M294.969 16.5804L294.417 16.4134M293.553 16.1518L294.417 16.4134" stroke="#14523C" stroke-width="6.45876" stroke-linecap="round"/>
<path d="M310.522 61.1927L317.737 65.4107C324.288 69.2408 331.476 70.5728 334.909 64.7017C337.352 60.5223 336.081 56.7969 332.417 53.5864C336.58 54.5738 339.818 53.3739 341.961 49.7086C344.899 44.6834 341.317 39.1622 334.75 35.3223L327.967 31.3564C325.794 30.0861 321.962 27.7342 320.72 29.8571C319.547 31.8639 322.431 32.5264 319.144 38.1486L312.114 50.1727C308.827 55.795 306.835 53.6067 305.662 55.6135C304.42 57.7363 308.35 59.9224 310.522 61.1927ZM316.52 59.2695L321.757 50.3136C322.106 49.7166 322.842 49.5237 323.439 49.8728L325.96 51.3467C328.845 53.0339 330.235 56.1384 327.946 60.0525C325.328 64.5304 321.87 63.8217 319.482 62.4254L316.961 60.9515C316.364 60.6024 316.171 59.8666 316.52 59.2695ZM324.501 45.6201L329.233 37.5267C329.582 36.9296 330.318 36.7367 330.915 37.0858L333.004 38.3076C335.393 39.7039 336.608 42.3063 334.495 45.9218C332.449 49.4212 329.924 50.2374 327.022 48.5405L324.932 47.3187C324.335 46.9696 324.152 46.2172 324.501 45.6201Z" fill="#C9E44A" stroke="#14523C" stroke-width="6.45876" stroke-linecap="round"/>
</svg>
