<svg width="141" height="23" viewBox="0 0 141 23" fill="none" xmlns="http://www.w3.org/2000/svg">
<path d="M16.725 0.324999H18.8V22.95H16.725V0.324999ZM10.1 2.775H12.15C12.15 4.40833 11.95 5.98333 11.55 7.5C11.1667 9.01667 10.5583 10.4583 9.725 11.825C8.89167 13.175 7.80833 14.4333 6.475 15.6C5.14167 16.7667 3.525 17.8083 1.625 18.725L0.525 17.05C2.70833 16 4.50833 14.775 5.925 13.375C7.34167 11.975 8.39167 10.4167 9.075 8.7C9.75833 6.96667 10.1 5.1 10.1 3.1V2.775ZM1.575 2.775H10.975V4.45H1.575V2.775ZM26.023 6.6H41.348V8.3H26.023V6.6ZM26.023 0.775H28.073V7.35H26.023V0.775ZM23.248 10.925H43.698V12.625H23.248V10.925ZM33.448 14.625C35.8647 14.625 37.7564 14.9833 39.123 15.7C40.4897 16.4167 41.173 17.4333 41.173 18.75C41.173 20.05 40.4897 21.0583 39.123 21.775C37.7564 22.4917 35.8647 22.85 33.448 22.85C31.0314 22.85 29.1314 22.4917 27.748 21.775C26.3814 21.0583 25.698 20.05 25.698 18.75C25.698 17.4333 26.3814 16.4167 27.748 15.7C29.1314 14.9833 31.0314 14.625 33.448 14.625ZM33.423 16.275C32.2564 16.275 31.248 16.375 30.398 16.575C29.5647 16.7583 28.923 17.0333 28.473 17.4C28.023 17.7667 27.798 18.2167 27.798 18.75C27.798 19.2667 28.023 19.7167 28.473 20.1C28.923 20.4667 29.5647 20.75 30.398 20.95C31.248 21.1333 32.2564 21.225 33.423 21.225C34.623 21.225 35.6397 21.1333 36.473 20.95C37.323 20.75 37.973 20.4667 38.423 20.1C38.873 19.7167 39.098 19.2667 39.098 18.75C39.098 18.2167 38.873 17.7667 38.423 17.4C37.973 17.0333 37.323 16.7583 36.473 16.575C35.6397 16.375 34.623 16.275 33.423 16.275ZM62.4523 10.625H64.5023V14.675H62.4523V10.625ZM56.0023 6.325H71.2773V8H56.0023V6.325ZM56.0023 1.2H71.0523V2.9H58.0523V7.25H56.0023V1.2ZM53.2773 9.825H73.7023V11.5H53.2773V9.825ZM55.7523 13.725H71.0773V18.8H57.8273V21.55H55.8023V17.3H69.0523V15.3H55.7523V13.725ZM55.8023 21.05H71.7523V22.675H55.8023V21.05ZM92.8004 0.324999H94.8504V22.975H92.8004V0.324999ZM88.5004 9H93.3004V10.725H88.5004V9ZM77.1254 15.8H78.8504C80.1837 15.8 81.4087 15.7833 82.5254 15.75C83.6421 15.7167 84.7254 15.65 85.7754 15.55C86.8254 15.45 87.9004 15.2917 89.0004 15.075L89.1754 16.8C88.0421 17 86.9421 17.1583 85.8754 17.275C84.8254 17.375 83.7254 17.45 82.5754 17.5C81.4421 17.5333 80.2004 17.55 78.8504 17.55H77.1254V15.8ZM77.0504 2.425H87.1504V10.35H79.1754V16.35H77.1254V8.65H85.1254V4.125H77.0504V2.425ZM99.2734 18.35H119.773V20.075H99.2734V18.35ZM108.448 12.925H110.498V18.85H108.448V12.925ZM101.673 1.925H103.748V5.95H115.248V1.925H117.298V13.5H101.673V1.925ZM103.748 7.65V11.8H115.248V7.65H103.748ZM138.746 0.324999H140.821V22.95H138.746V0.324999ZM132.121 2.775H134.171C134.171 4.40833 133.971 5.98333 133.571 7.5C133.188 9.01667 132.58 10.4583 131.746 11.825C130.913 13.175 129.83 14.4333 128.496 15.6C127.163 16.7667 125.546 17.8083 123.646 18.725L122.546 17.05C124.73 16 126.53 14.775 127.946 13.375C129.363 11.975 130.413 10.4167 131.096 8.7C131.78 6.96667 132.121 5.1 132.121 3.1V2.775ZM123.596 2.775H132.996V4.45H123.596V2.775Z" fill="#343C6A"/>
</svg>
