<svg width="104" height="21" viewBox="0 0 104 21" fill="none" xmlns="http://www.w3.org/2000/svg">
<path d="M9.9 20.35C6.85 20.35 4.49167 19.55 2.825 17.95C1.175 16.35 0.35 13.7917 0.35 10.275C0.35 6.75833 1.175 4.2 2.825 2.6C4.49167 0.999999 6.85 0.199999 9.9 0.199999C12.95 0.199999 15.3 0.999999 16.95 2.6C18.6167 4.2 19.45 6.75833 19.45 10.275C19.45 13.7917 18.6167 16.35 16.95 17.95C15.3 19.55 12.95 20.35 9.9 20.35ZM9.9 15.9C10.4667 15.9 10.8917 15.75 11.175 15.45C11.4583 15.15 11.6 14.6833 11.6 14.05V6.5C11.6 5.86667 11.4583 5.4 11.175 5.1C10.8917 4.8 10.4667 4.65 9.9 4.65C9.33333 4.65 8.90833 4.8 8.625 5.1C8.34167 5.4 8.2 5.86667 8.2 6.5V14.05C8.2 14.7 8.34167 15.175 8.625 15.475C8.90833 15.7583 9.33333 15.9 9.9 15.9ZM36.8498 15.9V20H28.9498V15.9H29.9998V11.8C29.9998 11.25 29.8831 10.85 29.6498 10.6C29.4165 10.3333 29.0665 10.2 28.5998 10.2C27.5998 10.2 27.0998 10.7333 27.0998 11.8V15.9H28.1498V20H20.2498V15.9H21.3498V10.2H20.2498V6.1H27.0998V8.05C28.2998 6.51667 29.7998 5.75 31.5998 5.75C32.9831 5.75 34.0165 6.18333 34.6998 7.05C35.3998 7.91667 35.7498 9.10833 35.7498 10.625V15.9H36.8498ZM38.057 15.025V10.925H46.082V15.025H38.057ZM54.8488 20.35C52.4655 20.35 50.6072 19.7333 49.2738 18.5C47.9405 17.25 47.2738 15.4333 47.2738 13.05C47.2738 10.6667 47.9405 8.85833 49.2738 7.625C50.6072 6.375 52.4572 5.75 54.8238 5.75C55.9738 5.75 57.0738 5.90833 58.1238 6.225C59.1738 6.54167 59.9905 6.9 60.5738 7.3V12.25H56.2738V11.8C56.2738 11.25 56.1572 10.85 55.9238 10.6C55.6905 10.3333 55.3238 10.2 54.8238 10.2C53.8572 10.2 53.3738 10.7333 53.3738 11.8V13.95C53.3738 15.25 54.1155 15.9 55.5988 15.9C56.9822 15.9 58.5905 15.75 60.4238 15.45V19.375C59.8572 19.625 59.0572 19.85 58.0238 20.05C57.0072 20.25 55.9488 20.35 54.8488 20.35ZM61.4119 20.025V15.9H62.5119V4.65H61.4119V0.549999H68.2619V15.9H69.3619V20.025H61.4119ZM86.6021 15.9V20H79.7521V18.05C78.5521 19.5833 77.0521 20.35 75.2521 20.35C73.8688 20.35 72.8271 19.9167 72.1271 19.05C71.4438 18.1833 71.1021 16.9917 71.1021 15.475V10.2H70.0021V6.1H76.8521V14.3C76.8521 14.85 76.9688 15.2583 77.2021 15.525C77.4521 15.775 77.8188 15.9 78.3021 15.9C78.7855 15.9 79.1438 15.775 79.3771 15.525C79.6271 15.2583 79.7521 14.85 79.7521 14.3V10.2H78.4021V6.1H85.5021V15.9H86.6021ZM98.0158 20.35C97.1658 20.35 96.4075 20.1417 95.7408 19.725C95.0908 19.3083 94.5575 18.8333 94.1408 18.3V20H87.2908V15.9H88.3908V4.65H87.2908V0.549999H94.1408V7.8C94.5575 7.26667 95.0908 6.79167 95.7408 6.375C96.4075 5.95833 97.1658 5.75 98.0158 5.75C99.7158 5.75 100.991 6.38333 101.841 7.65C102.707 8.91667 103.141 10.7167 103.141 13.05C103.141 15.3833 102.707 17.1833 101.841 18.45C100.991 19.7167 99.7158 20.35 98.0158 20.35ZM95.5908 15.9C96.0742 15.9 96.4325 15.775 96.6658 15.525C96.9158 15.2583 97.0408 14.85 97.0408 14.3V11.8C97.0408 11.25 96.9158 10.85 96.6658 10.6C96.4325 10.3333 96.0742 10.2 95.5908 10.2C95.1075 10.2 94.7408 10.3333 94.4908 10.6C94.2575 10.85 94.1408 11.25 94.1408 11.8V14.3C94.1408 14.85 94.2575 15.2583 94.4908 15.525C94.7408 15.775 95.1075 15.9 95.5908 15.9Z" fill="#343C6A"/>
</svg>
